<svg xmlns="http://www.w3.org/2000/svg" width="1em" height="1em" viewBox="0 0 1664 1664"><path fill="#000000" d="M1024 672v64q0 13-9.5 22.5T992 768H768v224q0 13-9.5 22.5T736 1024h-64q-13 0-22.5-9.5T640 992V768H416q-13 0-22.5-9.5T384 736v-64q0-13 9.5-22.5T416 640h224V416q0-13 9.5-22.5T672 384h64q13 0 22.5 9.5T768 416v224h224q13 0 22.5 9.5t9.5 22.5m128 32q0-185-131.5-316.5T704 256T387.5 387.5T256 704t131.5 316.5T704 1152t316.5-131.5T1152 704m512 832q0 53-37.5 90.5T1536 1664q-54 0-90-38l-343-342q-179 124-399 124q-143 0-273.5-55.5t-225-150t-150-225T0 704t55.5-273.5t150-225t225-150T704 0t273.5 55.5t225 150t150 225T1408 704q0 220-124 399l343 343q37 37 37 90"/></svg>
